<svg width="36" height="36" viewBox="0 0 36 36" fill="none" xmlns="http://www.w3.org/2000/svg">
<path fill-rule="evenodd" clip-rule="evenodd" d="M16 5.5C10.201 5.5 5.5 10.201 5.5 16C5.5 21.799 10.201 26.5 16 26.5C18.3585 26.5 20.5354 25.7224 22.2883 24.4096L27.9393 30.0607C28.5251 30.6464 29.4749 30.6464 30.0607 30.0607C30.6464 29.4749 30.6464 28.5251 30.0607 27.9393L24.4096 22.2883C25.7224 20.5354 26.5 18.3585 26.5 16C26.5 10.201 21.799 5.5 16 5.5ZM8.5 16C8.5 11.8579 11.8579 8.5 16 8.5C20.1421 8.5 23.5 11.8579 23.5 16C23.5 20.1421 20.1421 23.5 16 23.5C11.8579 23.5 8.5 20.1421 8.5 16Z" fill="#FF8A3D"/>
</svg>
