<svg width="18" height="18" viewBox="0 0 18 18" fill="none" xmlns="http://www.w3.org/2000/svg">
<path fill-rule="evenodd" clip-rule="evenodd" d="M9 16C12.866 16 16 12.866 16 9C16 5.13401 12.866 2 9 2C5.13401 2 2 5.13401 2 9C2 12.866 5.13401 16 9 16ZM6.14645 6.14645C6.34171 5.95118 6.65829 5.95118 6.85355 6.14645L9 8.29289L11.1464 6.14645C11.3417 5.95118 11.6583 5.95118 11.8536 6.14645C12.0488 6.34171 12.0488 6.65829 11.8536 6.85355L9.70711 9L11.8536 11.1464C12.0488 11.3417 12.0488 11.6583 11.8536 11.8536C11.6583 12.0488 11.3417 12.0488 11.1464 11.8536L9 9.70711L6.85355 11.8536C6.65829 12.0488 6.34171 12.0488 6.14645 11.8536C5.95118 11.6583 5.95118 11.3417 6.14645 11.1464L8.29289 9L6.14645 6.85355C5.95118 6.65829 5.95118 6.34171 6.14645 6.14645Z" fill="#ADB5BD"/>
</svg>
