<svg xmlns="http://www.w3.org/2000/svg" viewBox="0 0 44.2 58.26"><defs><style>.cls-1{fill:#ff8a3d;}.cls-2{fill:#56c271;}</style></defs><title>symbol</title><g id="Layer_2" data-name="Layer 2"><g id="Layer_1-2" data-name="Layer 1"><path class="cls-1" d="M22.1,10.79A22.08,22.08,0,0,0,4.68,46.46l.69.85c.35.4.7.8,1.08,1.18l0,0A35.78,35.78,0,0,0,22.1,58.26a35.78,35.78,0,0,0,15.62-9.73l0,0c.38-.38.73-.78,1.08-1.18l.69-.85A22.08,22.08,0,0,0,22.1,10.79Zm0,30.55a8.45,8.45,0,1,1,8.45-8.45A8.45,8.45,0,0,1,22.1,41.34Z"/><path class="cls-2" d="M29.29,10.32A3.25,3.25,0,0,0,28.6,3.9a3.17,3.17,0,0,0-1.4.33,5.19,5.19,0,0,0-10.2,0,3.17,3.17,0,0,0-1.4-.33,3.25,3.25,0,0,0-.69,6.42,21.8,21.8,0,0,1,14.38,0Z"/></g></g></svg>